<svg id="Capa_1" data-name="Capa 1" xmlns="http://www.w3.org/2000/svg" viewBox="0 0 100 100"><defs><style>.cls-1{fill:#87ceeb;stroke:#87ceeb;stroke-miterlimit:10;}.cls-2{fill:#fff;}</style></defs><title>Mesa de trabajo 22</title><circle class="cls-1" cx="48.5" cy="50.5" r="34"/><path class="cls-2" d="M48.67,28A15.66,15.66,0,0,0,33,43.67C33,55.54,48.67,75,48.67,75S64.33,55.54,64.33,43.67A15.66,15.66,0,0,0,48.67,28ZM53,50.37l-4.21-2.21a.34.34,0,0,0-.31,0l-4.2,2.21.8-4.68a.34.34,0,0,0-.1-.3l-3.39-3.31,4.69-.68a.32.32,0,0,0,.25-.18L48.67,37l2.1,4.26a.34.34,0,0,0,.25.18l4.7.68-3.4,3.31a.34.34,0,0,0-.1.3Z"/></svg>