<svg id="Capa_1" data-name="Capa 1" xmlns="http://www.w3.org/2000/svg" viewBox="0 0 100 100"><defs><style>.cls-1{fill:#adff2f;stroke:#adff2f;stroke-miterlimit:10;stroke-width:5px;}.cls-2{fill:#fff;}</style></defs><title>Mesa de trabajo 7</title><circle class="cls-1" cx="50.5" cy="49.5" r="34"/><path class="cls-2" d="M29.05,35.26V53.89H26.89v4.77h4.75a4.67,4.67,0,0,0,9.33,0H52.88V35.26Zm7.26,26.15a2.92,2.92,0,1,1,2.91-2.91A2.91,2.91,0,0,1,36.31,61.41Z"/><path class="cls-2" d="M63.74,37.86h-8.2v20.8h3.53a4.67,4.67,0,0,0,9.33,0H72V49.17Zm0,23.55a2.92,2.92,0,1,1,2.91-2.91A2.91,2.91,0,0,1,63.74,61.41Zm-6-13.15V40h4.87l5.83,8.23Z"/></svg>