<svg id="Capa_1" data-name="Capa 1" xmlns="http://www.w3.org/2000/svg" viewBox="0 0 100 100"><defs><style>.cls-1{fill:#ff6d00;stroke:#ff6d00;stroke-miterlimit:10;stroke-width:5px;}.cls-2{fill:#fff;}</style></defs><title>Mesa de trabajo 6</title><circle class="cls-1" cx="46.5" cy="49.5" r="34"/><path class="cls-2" d="M46.18,21.68A18.83,18.83,0,0,1,65,40.5c0,3.62-2.22,9.08-5.14,14.65-5.46,10.4-13.35,21.2-13.68,21.22h0c-.25,0-4.86-6.22-9.44-13.77s-9.16-16.42-9.37-21.73c0-.13,0-.25,0-.37A18.85,18.85,0,0,1,46.18,21.68Zm5.43,14.21a7.69,7.69,0,1,0,2.25,5.44A7.65,7.65,0,0,0,51.61,35.89Z"/></svg>