<svg id="Capa_1" data-name="Capa 1" xmlns="http://www.w3.org/2000/svg" viewBox="0 0 100 100"><defs><style>.cls-1{fill:#e65418;}.cls-2{fill:#fff;}</style></defs><title>Mesa de trabajo 10</title><circle class="cls-1" cx="51.5" cy="50.2" r="34.5"/><path class="cls-2" d="M43.12,53.15H39.74a10.41,10.41,0,0,0-10.4,10.39V67A4.07,4.07,0,0,0,33.41,71h16A4.06,4.06,0,0,0,53.51,67V63.54A10.4,10.4,0,0,0,43.12,53.15ZM50.36,67a.91.91,0,0,1-.91.91h-16a.92.92,0,0,1-.92-.91V63.54a7.25,7.25,0,0,1,7.25-7.24h3.38a7.25,7.25,0,0,1,7.24,7.24Z"/><path class="cls-2" d="M66.26,41.88,72.8,29.4H69.28L62.73,41.88h-9.4L56.4,71H70.24l3.43-29.13Zm1.18,26h-8.2L56.83,45H70.12Z"/></svg>