<svg id="Capa_1" data-name="Capa 1" xmlns="http://www.w3.org/2000/svg" viewBox="0 0 100 100"><defs><style>.cls-1{fill:#86888a;}.cls-2{fill:#fff;}</style></defs><title>Mesa de trabajo 18</title><circle class="cls-1" cx="49.58" cy="52.1" r="36.1"/><path class="cls-2" d="M70.05,38.75l0,0L61,29.66l-2.59,2.59,5.15,5.14a6.08,6.08,0,0,0,2.16,11.77,6.16,6.16,0,0,0,2.44-.51V66.22a2.44,2.44,0,1,1-4.87,0v-11a4.89,4.89,0,0,0-4.88-4.88H56V33.32a4.89,4.89,0,0,0-4.87-4.88H36.49a4.89,4.89,0,0,0-4.88,4.88v39H56V54h3.66V66.22a6.1,6.1,0,1,0,12.19,0V43.07A6.11,6.11,0,0,0,70.05,38.75ZM51.11,45.51H36.49V33.32H51.11Zm14.62,0a2.44,2.44,0,1,1,2.44-2.44A2.44,2.44,0,0,1,65.73,45.51Z"/></svg>