<svg id="Capa_1" data-name="Capa 1" xmlns="http://www.w3.org/2000/svg" viewBox="0 0 100 100"><defs><style>.cls-1{fill:#248a9b;}.cls-2{fill:#fff;}</style></defs><title>Mesa de trabajo 17</title><circle class="cls-1" cx="47.8" cy="51.41" r="35.05"/><path class="cls-2" d="M45.17,40.94a6.71,6.71,0,1,0-6.71-6.71,6.72,6.72,0,0,0,6.71,6.71Zm-.67-12v1.3h1.34v-1.3a5.37,5.37,0,0,1,4.65,4.65H49.2v1.35h1.29a5.37,5.37,0,0,1-4.65,4.65v-1.3H44.5v1.3a5.39,5.39,0,0,1-4.65-4.65h1.3V33.56h-1.3a5.39,5.39,0,0,1,4.65-4.65Zm0,0"/><path class="cls-2" d="M45.84,34.51v-3H44.5V34L43.36,35.1l.94.95Zm0,0"/><path class="cls-2" d="M69.33,59.06A2,2,0,0,0,68,57.17V45.64a2,2,0,0,0-2-2h-3.7a7.36,7.36,0,0,0-11.38,0H47.18a2,2,0,0,0-2,2V57.17a2,2,0,0,0-1.34,1.89v7.38h1.34v.67a2,2,0,0,0,2,2h2.69a2,2,0,0,0,2-2v-.67h9.4v.67a2,2,0,0,0,2,2H66a2,2,0,0,0,2-2v-.67h1.34ZM54.57,52.27a18.42,18.42,0,0,1-3.2-.57,21.4,21.4,0,0,0-2.17-.46V49.67a.67.67,0,0,1,.67-.67h4a.68.68,0,0,1,.68.67ZM51.05,53a19.65,19.65,0,0,0,5.53.69A19.71,19.71,0,0,0,62.11,53a18.16,18.16,0,0,1,4.53-.64v4.69H46.51V52.36a18.18,18.18,0,0,1,4.54.64ZM64,51.24a22.24,22.24,0,0,0-2.18.46,18.12,18.12,0,0,1-3.19.57v-2.6a.67.67,0,0,1,.67-.67h4a.67.67,0,0,1,.67.67ZM47.18,45h4.37l.2-.27a6,6,0,0,1,9.66,0l.2.27H66a.67.67,0,0,1,.67.67V51c-.49,0-.93,0-1.34.06V49.67a2,2,0,0,0-2-2h-4a2,2,0,0,0-2,2v2.67H55.91V49.67a2,2,0,0,0-2-2h-4a2,2,0,0,0-2,2v1.41q-.61,0-1.35-.06V45.64a.68.68,0,0,1,.67-.67Zm3.36,22.14a.67.67,0,0,1-.67.67H47.18a.68.68,0,0,1-.67-.67v-.67h4Zm16.1,0a.67.67,0,0,1-.67.67H63.29a.67.67,0,0,1-.67-.67v-.67h4Zm1.35-2H45.17v-6a.67.67,0,0,1,.67-.67H67.31a.68.68,0,0,1,.68.67Zm0,0"/><rect class="cls-2" x="46.51" y="62.42" width="20.13" height="1.34"/><path class="cls-2" d="M42.75,53l-3.13-9.39h-9L27.47,53h5.62V65.1h-.67a2,2,0,0,0-2,2v2H39.8v-2a2,2,0,0,0-2-2h-.67V53H39.8v4.15a2,2,0,1,0,1.35,0V53Zm-2.27,6.71a.67.67,0,1,1,.67-.67.68.68,0,0,1-.67.67ZM31.57,45h7.08l2.24,6.71H29.33Zm6.89,22.14v.67H31.75v-.67a.67.67,0,0,1,.67-.67h5.37a.67.67,0,0,1,.67.67Zm-2.68-2H34.44V53h1.34Zm0,0"/></svg>