<svg id="Capa_1" data-name="Capa 1" xmlns="http://www.w3.org/2000/svg" viewBox="0 0 100 100"><defs><style>.cls-1{fill:#26a5da;}.cls-2{fill:#fff;}</style></defs><title>Mesa de trabajo 16</title><circle class="cls-1" cx="46.26" cy="50.79" r="35.52"/><circle class="cls-2" cx="25.81" cy="37.17" r="4.69"/><path class="cls-2" d="M32,46.79s-2.09-2-1-3.9c.89-1.53,3.15-.61,4-.18a3.17,3.17,0,0,1,.58.37l5.9,4.84a3,3,0,0,0,1.85.66h3.76a2.64,2.64,0,0,0,1.25-.32L53.1,45.7a6.85,6.85,0,0,1,5,.29c3.1,1.19,5.76,1.7,7.75,3s2.07,3.39,1,4.28-4.35.24-8.19-1.36-4.58-1.08-4.58-1.08L49.55,53.4a1.81,1.81,0,0,1-.88.23H41.23a1.74,1.74,0,0,1-1.09-.38Z"/><path class="cls-2" d="M33.75,60.13v9s.37.41,2.22.41,2.88-.19,3-.44.18-3,.21-4.12a.5.5,0,0,1,.51-.5l21.83,0a.63.63,0,0,1,.63.63V69.1a.31.31,0,0,0,.18.28,5.46,5.46,0,0,0,2.18.5c1.44,0,3-.15,3-.92V59s-.22-1.1-2.43-1.36c-2-.24-21.56-.23-25.57-.23a2,2,0,0,1-1.28-.44L25.15,46.51s-2.07-.7-2.88.37a3,3,0,0,0-.55,3.4C22.34,51.42,33.75,60.13,33.75,60.13Z"/></svg>