<svg id="Capa_1" data-name="Capa 1" xmlns="http://www.w3.org/2000/svg" viewBox="0 0 100 100"><defs><style>.cls-1{fill:#ff6d00;}</style></defs><title>Mesa de trabajo 12</title><path class="cls-1" d="M42.58,38.56a1.68,1.68,0,0,0,1.71,1.72H55.15a1.72,1.72,0,0,0,0-3.43H44.29A1.68,1.68,0,0,0,42.58,38.56Z"/><path class="cls-1" d="M85.27,38.28,51,14.28a1.7,1.7,0,0,0-1.95,0l-34.29,24A1.8,1.8,0,0,0,14,39.71V84.29A1.68,1.68,0,0,0,15.71,86H27.14a.42.42,0,0,0,.29-.06h.11c.06,0,.12,0,.18,0s.05-.06.11-.06.11-.06.17-.12.06,0,.12,0h.05l4.12-3.09H71.15v1.72A1.68,1.68,0,0,0,72.87,86H84.3A1.68,1.68,0,0,0,86,84.29V39.71A1.8,1.8,0,0,0,85.27,38.28Zm-37,39.15a1.68,1.68,0,0,1-1.71,1.71H36.29a1.69,1.69,0,0,1-1.72-1.71V67.14a1.69,1.69,0,0,1,1.72-1.71h2.86a.54.54,0,0,1,.57.57v2.28c0,1,3.43,1,3.43,0V66a.54.54,0,0,1,.57-.57h2.86a1.68,1.68,0,0,1,1.71,1.71Zm17.15,0a1.69,1.69,0,0,1-1.72,1.71H53.43a1.68,1.68,0,0,1-1.71-1.71V67.14a1.68,1.68,0,0,1,1.71-1.71h2.86a.54.54,0,0,1,.57.57v2.28c0,1,3.43,1,3.43,0V66a.54.54,0,0,1,.57-.57h2.86a1.69,1.69,0,0,1,1.72,1.71Zm17.14,5.14h-8V49.42a1.68,1.68,0,0,0-1.71-1.71H27.14a1.68,1.68,0,0,0-1.71,1.71V82.57h-8V40.62L50,17.82l32.57,22.8Z"/></svg>