<svg id="Capa_1" data-name="Capa 1" xmlns="http://www.w3.org/2000/svg" viewBox="0 0 100 100"><defs><style>.cls-1{fill:#747474;}</style></defs><title>Mesa de trabajo 3</title><path class="cls-1" d="M74.63,58.05H56.86l9.33-19.29,1.54-3.18c.19-.5.36-1,.5-1.52A19,19,0,1,0,31,29a18.7,18.7,0,0,0,.72,5.1c.14.51.31,1,.49,1.52l1.54,3.18,9.33,19.29H25.32L11.88,86.2h76.2ZM50,22.18A6.79,6.79,0,1,1,43.19,29,6.79,6.79,0,0,1,50,22.18ZM39.21,65c3.19.43,5.07,2.66,7.36,5.42,3.65,4.39,8.18,9.85,20.29,9.85,7.4,0,11.94-1.34,13.51-4l3.44,7.22H39.21Zm36.63,1.8c-4.72,0-10,0-12.55-2.61a5.53,5.53,0,0,1-1.54-3.47H72.94ZM50,72.27l5.58-11.53h4.85a7,7,0,0,0,1.93,4.42c2.84,2.83,8.07,3,12.87,3h1.27l3.1,6.48a2.85,2.85,0,0,1-.22.7c-.75,1.65-3.54,3.61-12.5,3.61-11.47,0-15.61-5-19.25-9.37-2.34-2.81-4.57-5.45-8.39-5.9V60.74H44.4ZM27,60.74H37.87v2.84a15.52,15.52,0,0,0-10.65,3.66,8.71,8.71,0,0,1-4.33,2.15Zm-4.79,10c2.63-.08,4.18-1.24,5.81-2.47a14.24,14.24,0,0,1,9.84-3.38V83.51H16.14Z"/></svg>