<svg id="Capa_1" data-name="Capa 1" xmlns="http://www.w3.org/2000/svg" viewBox="0 0 100 100"><defs><style>.cls-1{fill:#800080;stroke:#800080;stroke-miterlimit:10;stroke-width:5px;}.cls-2{fill:#fff;}</style></defs><title>Mesa de trabajo 19</title><circle class="cls-1" cx="47.5" cy="49.5" r="34"/><path class="cls-2" d="M66.61,39.8,48.51,27.13a.9.9,0,0,0-1,0L29.39,39.8a.94.94,0,0,0-.39.75V64.08a.88.88,0,0,0,.9.9h6a.22.22,0,0,0,.15,0h.06s.06,0,.09,0,0,0,.06,0,.06,0,.09-.06,0,0,.06,0h0l2.17-1.63H59.16v.91a.88.88,0,0,0,.9.9h6a.88.88,0,0,0,.9-.9V40.55A.94.94,0,0,0,66.61,39.8ZM47.1,60.46a.89.89,0,0,1-.91.9H40.76a.88.88,0,0,1-.9-.9V55a.88.88,0,0,1,.9-.9h1.51a.28.28,0,0,1,.3.3v1.2c0,.52,1.81.52,1.81,0v-1.2a.28.28,0,0,1,.3-.3h1.51a.89.89,0,0,1,.91.9Zm9,0a.88.88,0,0,1-.9.9H49.81a.89.89,0,0,1-.91-.9V55a.89.89,0,0,1,.91-.9h1.51a.28.28,0,0,1,.3.3v1.2c0,.52,1.81.52,1.81,0v-1.2a.28.28,0,0,1,.3-.3h1.51a.88.88,0,0,1,.9.9Zm9,2.71H61V45.68a.89.89,0,0,0-.91-.9H35.94a.89.89,0,0,0-.91.9V63.17H30.81V41L48,29,65.19,41Z"/></svg>